# xmcd
#
# Track frame offsets: 
#        150
#        17367
#        39084
#        68617
#        92674
#        119829
#        156451
#        185765
#        210655
#        226376
#        244143
#
# Disc length: 3645 seconds
#
# Revision: 0
# Processed by: cddbd v1.5.2PL0 Copyright (c) Steve Scherf et al.
# Submitted via: ExactAudioCopyFreeDBPlugin 1.0
#
DISCID=8f0e3b0b
DTITLE=Ngoc Bao - Loi Du Tu
DYEAR=1900
DGENRE=
TTITLE0=Gioi thieu
TTITLE1=Mo hoa
TTITLE2=Chieu vang
TTITLE3=Lo chuyen do
TTITLE4=Co hang cafe
TTITLE5=Goi nguoi em gai mien nam
TTITLE6=Thu quyen ru
TTITLE7=Bong chieu xua
TTITLE8=Tieng hat quay to
TTITLE9=Loi du tu
TTITLE10=Mot thoi de nho
EXTD=
EXTT0=
EXTT1=
EXTT2=
EXTT3=
EXTT4=
EXTT5=
EXTT6=
EXTT7=
EXTT8=
EXTT9=
EXTT10=
PLAYORDER=
